<svg width="227" height="65" viewBox="0 0 227 65" fill="none" xmlns="http://www.w3.org/2000/svg">
<path d="M25.512 40.576L39.816 64H29.832L20.616 48.736L11.304 64H1.512L15.624 40.576L0.839996 16H10.632L20.616 32.416L30.504 16H40.392L25.512 40.576Z" fill="#FF0E56"/>
<path d="M72.4927 64V56.608C70.4447 59.04 68.0127 60.96 65.1967 62.368C62.4447 63.776 59.5647 64.48 56.5567 64.48C53.1647 64.48 49.9967 63.872 47.0527 62.656C44.1087 61.376 41.5487 59.584 39.3727 57.28C37.1327 54.976 35.3727 52.352 34.0927 49.408C32.8767 46.4 32.2687 43.232 32.2687 39.904C32.2687 36.576 32.8767 33.44 34.0927 30.496C35.3727 27.488 37.1327 24.832 39.3727 22.528C41.5487 20.224 44.1087 18.464 47.0527 17.248C49.9967 15.968 53.1647 15.328 56.5567 15.328C59.8847 15.328 62.8927 16 65.5807 17.344C68.3327 18.688 70.6367 20.544 72.4927 22.912V0.255972H80.9408V64H72.4927ZM56.5567 24.064C54.4447 24.064 52.4287 24.48 50.5087 25.312C48.5887 26.08 46.9247 27.2 45.5167 28.672C44.1087 30.144 42.9887 31.872 42.1567 33.856C41.3247 35.776 40.9087 37.792 40.9087 39.904C40.9087 44.192 42.4447 47.936 45.5167 51.136C46.9247 52.608 48.5887 53.76 50.5087 54.592C52.4287 55.424 54.4447 55.84 56.5567 55.84C58.6687 55.84 60.6847 55.424 62.6047 54.592C64.5887 53.76 66.2847 52.608 67.6927 51.136C70.7647 47.936 72.3007 44.192 72.3007 39.904C72.3007 37.792 71.8847 35.776 71.0527 33.856C70.2207 31.872 69.1007 30.144 67.6927 28.672C66.2847 27.2 64.5887 26.08 62.6047 25.312C60.6847 24.48 58.6687 24.064 56.5567 24.064Z" fill="#FF0E56"/>
<path d="M102.798 64.48C99.534 64.48 96.43 63.84 93.486 62.56C90.542 61.28 87.95 59.52 85.71 57.28C83.47 55.04 81.71 52.448 80.43 49.504C79.15 46.56 78.51 43.456 78.51 40.192C78.51 36.864 79.15 33.696 80.43 30.688C81.71 27.68 83.47 25.056 85.71 22.816C87.95 20.576 90.542 18.848 93.486 17.632C96.43 16.352 99.534 15.712 102.798 15.712C106.126 15.712 109.294 16.352 112.302 17.632C115.31 18.848 117.934 20.576 120.174 22.816C122.414 25.056 124.142 27.68 125.358 30.688C126.638 33.696 127.278 36.864 127.278 40.192C127.278 43.456 126.638 46.56 125.358 49.504C124.142 52.448 122.414 55.04 120.174 57.28C117.934 59.52 115.31 61.28 112.302 62.56C109.294 63.84 106.126 64.48 102.798 64.48ZM102.798 24.256C98.51 24.256 94.83 25.792 91.758 28.864C90.286 30.336 89.134 32.064 88.302 34.048C87.47 36.032 87.054 38.08 87.054 40.192C87.054 42.304 87.47 44.32 88.302 46.24C89.134 48.16 90.286 49.856 91.758 51.328C93.23 52.8 94.894 53.952 96.75 54.784C98.67 55.616 100.686 56.032 102.798 56.032C104.91 56.032 106.958 55.616 108.942 54.784C110.926 53.952 112.622 52.8 114.03 51.328C115.438 49.856 116.558 48.16 117.39 46.24C118.222 44.32 118.638 42.304 118.638 40.192C118.638 38.08 118.222 36.032 117.39 34.048C116.558 32.064 115.438 30.336 114.03 28.864C112.622 27.392 110.926 26.272 108.942 25.504C107.022 24.672 104.974 24.256 102.798 24.256Z" fill="#FF0E56"/>
<path d="M180.067 64V33.952C180.067 31.328 179.139 29.12 177.283 27.328C175.491 25.536 173.284 24.64 170.66 24.64C168.1 24.64 165.859 25.536 163.939 27.328C162.083 29.056 161.156 31.232 161.156 33.856V64H152.419V33.856C152.419 31.168 151.523 28.992 149.731 27.328C147.811 25.536 145.539 24.64 142.915 24.64C140.355 24.64 138.179 25.536 136.387 27.328C134.467 29.248 133.507 31.52 133.507 34.144V64H124.867V17.152H133.507V20.704C134.595 19.36 136.003 18.24 137.731 17.344C139.523 16.448 141.251 16 142.915 16C145.731 16 148.291 16.576 150.595 17.728C152.963 18.816 155.012 20.352 156.74 22.336C158.468 20.352 160.515 18.816 162.883 17.728C165.251 16.576 167.844 16 170.66 16C173.156 16 175.491 16.448 177.667 17.344C179.843 18.24 181.763 19.52 183.427 21.184C185.091 22.848 186.372 24.8 187.268 27.04C188.228 29.216 188.707 31.52 188.707 33.952V64H180.067Z" fill="#FF0E56"/>
<path d="M187.234 64V0.159973H194.914V64H187.234Z" fill="#FF0E56"/>
<path d="M217.636 30.304C217.444 29.152 217.028 28.064 216.388 27.04C215.172 24.928 212.772 23.872 209.188 23.872C207.268 23.872 205.796 24.096 204.772 24.544C203.428 25.056 202.404 25.792 201.7 26.752C201.06 27.712 200.74 28.768 200.74 29.92C200.74 31.328 201.252 32.608 202.276 33.76C203.364 34.976 205.124 35.616 207.556 35.68C211.844 35.872 215.3 36.384 217.924 37.216C220.612 38.048 222.66 39.488 224.068 41.536C225.54 43.584 226.276 46.464 226.276 50.176C226.276 53.952 224.836 57.216 221.956 59.968C220.548 61.312 218.884 62.4 216.964 63.232C215.108 64.064 213.156 64.48 211.108 64.48H209.668C204.548 64.48 200.42 63.008 197.284 60.064C194.724 57.696 193.124 54.368 192.484 50.08H201.028C201.348 51.616 201.988 52.864 202.948 53.824C204.42 55.232 206.468 55.936 209.092 55.936C209.796 55.936 210.308 55.904 210.628 55.84C212.868 55.712 214.628 55.104 215.908 54.016C217.188 52.864 217.828 51.456 217.828 49.792C217.828 47.488 217.124 45.984 215.716 45.28C214.308 44.576 211.588 44.224 207.556 44.224C202.5 44.224 198.628 42.624 195.94 39.424C193.764 36.992 192.676 33.92 192.676 30.208C192.676 29.376 192.708 28.736 192.772 28.288C193.284 24.128 194.98 20.96 197.86 18.784C200.804 16.544 204.676 15.424 209.476 15.424C212.996 15.424 216.068 16.192 218.692 17.728C220.548 18.88 222.148 20.48 223.492 22.528C224.772 24.576 225.604 27.136 225.988 30.208L225.796 30.304H217.636Z" fill="#FF0E56"/>
</svg>
